<?xml version="1.0" encoding="UTF-8" standalone="no"?>
	
<svg
	xmlns:dc="http://purl.org/dc/elements/1.1/"
	xmlns:cc="http://creativecommons.org/ns#"
	xmlns:rdf="http://www.w3.org/1999/02/22-rdf-syntax-ns#"
	xmlns:svg="http://www.w3.org/2000/svg"
	xmlns="http://www.w3.org/2000/svg"
	xmlns:xlink="http://www.w3.org/1999/xlink"
	xmlns:sodipodi="http://sodipodi.sourceforge.net/DTD/sodipodi-0.dtd"
	xmlns:inkscape="http://www.inkscape.org/namespaces/inkscape"
width = "1696" height = "1152"
	viewBox="-832 -32 1696 1152"
	version="1.1"
	id="svg8"
	inkscape:version="0.92.2 5c3e80d, 2017-08-06"
	sodipodi:docname="test.svg">
	<defs
		id="defs9" />
	<sodipodi:namedview
		 id="base"
		 pagecolor="#ffffff"
		 bordercolor="#666666"
		 borderopacity="1.0"
		 inkscape:pageopacity="0.0"
		 inkscape:pageshadow="2"
		 inkscape:zoom="1.0"
		 inkscape:cx="1024"
		 inkscape:cy="1024"
		 inkscape:document-units="px"
		 inkscape:current-layer="layer1"
		 showgrid="true"
		 inkscape:window-width="1024"
		 inkscape:window-height="1024"
		 inkscape:window-x="1024"
		 inkscape:window-y="1024"
		 inkscape:window-maximized="0"
		 showguides="true"
		 units="px"
		 fit-margin-top="0"
		 fit-margin-left="0"
		 fit-margin-right="0"
		 fit-margin-bottom="0"
		 inkscape:snap-to-guides="false"
		 inkscape:snap-grids="true"
		 inkscape:snap-nodes="false"
		 inkscape:object-nodes="true"
		 inkscape:object-paths="false"
		 inkscape:snap-bbox="true"
		 inkscape:snap-bbox-midpoints="false"
		 inkscape:bbox-nodes="true">
	
		<inkscape:grid
		   type="xygrid"
		   id="grid815"
		   spacingx="16"
		   spacingy="16"
		   empspacing="1"
		   dotted="true"
		   units="px"
		   originx="0"
		   originy="0"
		   enabled="true" />
	  </sodipodi:namedview>
	  <metadata
		 id="metadata5">
		<rdf:RDF>
		  <cc:Work
			 rdf:about="">
			<dc:format>image/svg+xml</dc:format>
			<dc:type
			   rdf:resource="http://purl.org/dc/dcmitype/StillImage" />
			<dc:title />
		  </cc:Work>
		</rdf:RDF>
	  </metadata>
	
<defs>
	<g id="svg/svg_current">
	<circle cx="0" cy="32" r="24" style="stroke:black; stroke-width:4;fill:white"/>
	<path 
	d="
	M 0,48 4,36
	M 0,48 -4,36
	M -4,36 4,36
	M 0,16 0,36
	M 0,64 0,56
	M 0,0 0,8
	"
	style="fill:none;fill-opacity:1;stroke:#000000;stroke-width:3;stroke-linecap:round;stroke-linejoin:round;stroke-miterlimit:0;stroke-dasharray:none;stroke-dashoffset:0;stroke-opacity:1"
	/>
	<rect x="-16" y="-16" width="96" height="112" style="fill:none;stroke:none" />
		</g>
</defs>

<defs>
     <g id="svg/svg_block_arrow">
      <polygon points="-16,-5 -16,5 0,0" style="fill:black;fill-opacity:1;stroke:black;stroke-width:3;stroke-linecap:round;stroke-linejoin:round;stroke-miterlimit:0;stroke-dasharray:none;stroke-dashoffset:0;stroke-opacity:1" />
     <rect x="-16" y="-16" width="48" height="48" style="fill:none;stroke:none" />
     </g>
</defs>

<defs>
     <g id="svg/svg_block_amp">
      <polygon points="16,-16 112,32 16,80" style="fill:none;fill-opacity:1;stroke:black;stroke-width:3;stroke-linecap:round;stroke-linejoin:round;stroke-miterlimit:0;stroke-dasharray:none;stroke-dashoffset:0;stroke-opacity:1" />
     <rect x="-16" y="-16" width="48" height="48" style="fill:none;stroke:none" />
          </g>
</defs>

<defs>
     <g id="svg/svg_block_sum">
     <circle cx="0" cy="16" r="16" style="stroke:black; stroke-width:3;fill:white"/>
      <path 
	d="M 0,8 0,24
	M 8,16 -8,16"
     style="fill:none;fill-opacity:1;stroke:#000000;stroke-width:3;stroke-linecap:round;stroke-linejoin:round;stroke-miterlimit:0;stroke-dasharray:none;stroke-dashoffset:0;stroke-opacity:1"
     />
     <rect x="-16" y="-16" width="48" height="48" style="fill:none;stroke:none" />
     </g>
</defs>

<defs>
	<g id="svg/svg_supply">
      <polygon points="-6,0 0,-15 6,0" style="fill:black;fill-opacity:1;stroke:black;stroke-width:3;stroke-linecap:round;stroke-linejoin:round;stroke-miterlimit:0;stroke-dasharray:none;stroke-dashoffset:0;stroke-opacity:1" />
     <rect x="-16" y="-16" width="32" height="32" style="fill:none;stroke:none" />
     </g>
</defs>
<defs>
    <g id="svg/svg_port">
      <circle cx="0" cy="0" r="6" style="stroke:black; fill:black"/>
      <circle cx="0" cy="0" r="3" style="stroke:white; fill:white"/>
     <rect x="-16" y="-16" width="32" height="32" style="fill:none;stroke:none" />
     </g>
</defs>
<defs>
     <g id="svg/svg_gnd">
      <path 
     d="M 0,0 0,8
     M -14,8 14,8
     M -8,14 8,14
     M -2,20 2,20"
     style="fill:none;fill-opacity:1;stroke:#000000;stroke-width:3;stroke-linecap:round;stroke-linejoin:round;stroke-miterlimit:0;stroke-dasharray:none;stroke-dashoffset:0;stroke-opacity:1"
     />
     <rect x="-16" y="-16" width="48" height="48" style="fill:none;stroke:none" />
     </g>
</defs>
<defs>
	  <g id="svg/svg_res">
		  <path 
		 d="M 16,0 32,5
		 M 32,5 0,16
		 M 0,16 32,27
		 M 32,27 0,37
		 M 0,37 32,48
		 M 32,48 0,59
		 M 0,59 16,64"
		 style="fill:none;fill-opacity:1;stroke:#000000;stroke-width:4;stroke-linecap:round;stroke-linejoin:round;stroke-miterlimit:0;stroke-dasharray:none;stroke-dashoffset:0;stroke-opacity:1"
		 />
		 <rect x="-16" y="-16" width="96" height="112" style="fill:none;stroke:none" />
		 	  </g>
</defs>

<defs>
	  <g id="svg/svg_cap">
		  <path 
		 d="M 16,37 16,64
		 M 16,27 16,0" 
		 style="fill:none;fill-opacity:1;stroke:#000000;stroke-width:3;stroke-linecap:round;stroke-linejoin:round;stroke-miterlimit:0;stroke-dasharray:none;stroke-dashoffset:0;stroke-opacity:1"
		   />
		   <path 
		 d="M -4,27 36,27
		 M -4,37 36,37" 
		 style="fill:none;fill-opacity:1;stroke:#000000;stroke-width:4;stroke-linecap:round;stroke-linejoin:round;stroke-miterlimit:0;stroke-dasharray:none;stroke-dashoffset:0;stroke-opacity:1"
		   />
		   <rect x="-16" y="-16" width="96" height="112" style="fill:none;stroke:none" />
		   	  </g>
	</defs>
	<defs>
	  <g id="svg/svg_nmos">
		  <path 
		 d="M 0,48 16,48
		 M 64,28 28,28
		 M 64,68 28,68
		 M 64,68 64,80
		 M 64,28 64,16" 
		 style="fill:none;fill-opacity:1;stroke:#000000;stroke-width:3;stroke-linecap:round;stroke-linejoin:round;stroke-miterlimit:0;stroke-dasharray:none;stroke-dashoffset:0;stroke-opacity:1"
		   />
		   <path 
		 d="M 16,70 16,24
		 M 28,81 28,15" 
		 style="fill:none;fill-opacity:1;stroke:#000000;stroke-width:6;stroke-linecap:round;stroke-linejoin:round;stroke-miterlimit:0;stroke-dasharray:none;stroke-dashoffset:0;stroke-opacity:1"
		   />
		   <polygon points="47,59 47,77 60,68" style="fill:#000000;fill-opacity:1;stroke:#000000;stroke-width:3;stroke-linecap:round;stroke-linejoin:round;stroke-miterlimit:0;stroke-dasharray:none;stroke-dashoffset:0;stroke-opacity:1" />
		   		   <rect x="-16" y="-16" width="96" height="112" style="fill:none;stroke:none" />
		   	  </g>
	</defs>
			<g inkscape:label="Layer 1" inkscape:groupmode="layer" id="layer1">
<polyline points="192 112 192 80" style="fill:none;fill-opacity:1;stroke:#000000;stroke-width:3;stroke-linecap:round;stroke-linejoin:round;stroke-miterlimit:0;stroke-dasharray:none;stroke-dashoffset:0;stroke-opacity:1" />
<polyline points="352 112 352 80" style="fill:none;fill-opacity:1;stroke:#000000;stroke-width:3;stroke-linecap:round;stroke-linejoin:round;stroke-miterlimit:0;stroke-dasharray:none;stroke-dashoffset:0;stroke-opacity:1" />
<polyline points="-256 160 -656 160" style="fill:none;fill-opacity:1;stroke:#000000;stroke-width:3;stroke-linecap:round;stroke-linejoin:round;stroke-miterlimit:0;stroke-dasharray:none;stroke-dashoffset:0;stroke-opacity:1" />
<polyline points="-256 240 -256 160" style="fill:none;fill-opacity:1;stroke:#000000;stroke-width:3;stroke-linecap:round;stroke-linejoin:round;stroke-miterlimit:0;stroke-dasharray:none;stroke-dashoffset:0;stroke-opacity:1" />
<polyline points="192 240 192 176" style="fill:none;fill-opacity:1;stroke:#000000;stroke-width:3;stroke-linecap:round;stroke-linejoin:round;stroke-miterlimit:0;stroke-dasharray:none;stroke-dashoffset:0;stroke-opacity:1" />
<polyline points="352 240 352 176" style="fill:none;fill-opacity:1;stroke:#000000;stroke-width:3;stroke-linecap:round;stroke-linejoin:round;stroke-miterlimit:0;stroke-dasharray:none;stroke-dashoffset:0;stroke-opacity:1" />
<polyline points="-656 256 -656 160" style="fill:none;fill-opacity:1;stroke:#000000;stroke-width:3;stroke-linecap:round;stroke-linejoin:round;stroke-miterlimit:0;stroke-dasharray:none;stroke-dashoffset:0;stroke-opacity:1" />
<polyline points="-656 256 -720 256" style="fill:none;fill-opacity:1;stroke:#000000;stroke-width:3;stroke-linecap:round;stroke-linejoin:round;stroke-miterlimit:0;stroke-dasharray:none;stroke-dashoffset:0;stroke-opacity:1" />
<polyline points="-624 256 -656 256" style="fill:none;fill-opacity:1;stroke:#000000;stroke-width:3;stroke-linecap:round;stroke-linejoin:round;stroke-miterlimit:0;stroke-dasharray:none;stroke-dashoffset:0;stroke-opacity:1" />
<polyline points="-496 256 -576 256" style="fill:none;fill-opacity:1;stroke:#000000;stroke-width:3;stroke-linecap:round;stroke-linejoin:round;stroke-miterlimit:0;stroke-dasharray:none;stroke-dashoffset:0;stroke-opacity:1" />
<polyline points="-336 256 -384 256" style="fill:none;fill-opacity:1;stroke:#000000;stroke-width:3;stroke-linecap:round;stroke-linejoin:round;stroke-miterlimit:0;stroke-dasharray:none;stroke-dashoffset:0;stroke-opacity:1" />
<polyline points="-288 256 -336 256" style="fill:none;fill-opacity:1;stroke:#000000;stroke-width:3;stroke-linecap:round;stroke-linejoin:round;stroke-miterlimit:0;stroke-dasharray:none;stroke-dashoffset:0;stroke-opacity:1" />
<polyline points="-224 256 -240 256" style="fill:none;fill-opacity:1;stroke:#000000;stroke-width:3;stroke-linecap:round;stroke-linejoin:round;stroke-miterlimit:0;stroke-dasharray:none;stroke-dashoffset:0;stroke-opacity:1" />
<polyline points="-48 256 -128 256" style="fill:none;fill-opacity:1;stroke:#000000;stroke-width:3;stroke-linecap:round;stroke-linejoin:round;stroke-miterlimit:0;stroke-dasharray:none;stroke-dashoffset:0;stroke-opacity:1" />
<polyline points="128 272 80 272" style="fill:none;fill-opacity:1;stroke:#000000;stroke-width:3;stroke-linecap:round;stroke-linejoin:round;stroke-miterlimit:0;stroke-dasharray:none;stroke-dashoffset:0;stroke-opacity:1" />
<polyline points="480 272 416 272" style="fill:none;fill-opacity:1;stroke:#000000;stroke-width:3;stroke-linecap:round;stroke-linejoin:round;stroke-miterlimit:0;stroke-dasharray:none;stroke-dashoffset:0;stroke-opacity:1" />
<polyline points="-608 288 -624 288" style="fill:none;fill-opacity:1;stroke:#000000;stroke-width:3;stroke-linecap:round;stroke-linejoin:round;stroke-miterlimit:0;stroke-dasharray:none;stroke-dashoffset:0;stroke-opacity:1" />
<polyline points="480 368 480 272" style="fill:none;fill-opacity:1;stroke:#000000;stroke-width:3;stroke-linecap:round;stroke-linejoin:round;stroke-miterlimit:0;stroke-dasharray:none;stroke-dashoffset:0;stroke-opacity:1" />
<polyline points="480 368 80 368" style="fill:none;fill-opacity:1;stroke:#000000;stroke-width:3;stroke-linecap:round;stroke-linejoin:round;stroke-miterlimit:0;stroke-dasharray:none;stroke-dashoffset:0;stroke-opacity:1" />
<polyline points="-208 416 -208 368" style="fill:none;fill-opacity:1;stroke:#000000;stroke-width:3;stroke-linecap:round;stroke-linejoin:round;stroke-miterlimit:0;stroke-dasharray:none;stroke-dashoffset:0;stroke-opacity:1" />
<polyline points="-592 432 -592 288" style="fill:none;fill-opacity:1;stroke:#000000;stroke-width:3;stroke-linecap:round;stroke-linejoin:round;stroke-miterlimit:0;stroke-dasharray:none;stroke-dashoffset:0;stroke-opacity:1" />
<polyline points="-480 432 -592 432" style="fill:none;fill-opacity:1;stroke:#000000;stroke-width:3;stroke-linecap:round;stroke-linejoin:round;stroke-miterlimit:0;stroke-dasharray:none;stroke-dashoffset:0;stroke-opacity:1" />
<polyline points="-336 432 -336 256" style="fill:none;fill-opacity:1;stroke:#000000;stroke-width:3;stroke-linecap:round;stroke-linejoin:round;stroke-miterlimit:0;stroke-dasharray:none;stroke-dashoffset:0;stroke-opacity:1" />
<polyline points="-336 432 -368 432" style="fill:none;fill-opacity:1;stroke:#000000;stroke-width:3;stroke-linecap:round;stroke-linejoin:round;stroke-miterlimit:0;stroke-dasharray:none;stroke-dashoffset:0;stroke-opacity:1" />
<polyline points="192 464 192 304" style="fill:none;fill-opacity:1;stroke:#000000;stroke-width:3;stroke-linecap:round;stroke-linejoin:round;stroke-miterlimit:0;stroke-dasharray:none;stroke-dashoffset:0;stroke-opacity:1" />
<polyline points="240 464 192 464" style="fill:none;fill-opacity:1;stroke:#000000;stroke-width:3;stroke-linecap:round;stroke-linejoin:round;stroke-miterlimit:0;stroke-dasharray:none;stroke-dashoffset:0;stroke-opacity:1" />
<polyline points="352 464 352 304" style="fill:none;fill-opacity:1;stroke:#000000;stroke-width:3;stroke-linecap:round;stroke-linejoin:round;stroke-miterlimit:0;stroke-dasharray:none;stroke-dashoffset:0;stroke-opacity:1" />
<polyline points="352 464 304 464" style="fill:none;fill-opacity:1;stroke:#000000;stroke-width:3;stroke-linecap:round;stroke-linejoin:round;stroke-miterlimit:0;stroke-dasharray:none;stroke-dashoffset:0;stroke-opacity:1" />
<polyline points="-208 512 -208 480" style="fill:none;fill-opacity:1;stroke:#000000;stroke-width:3;stroke-linecap:round;stroke-linejoin:round;stroke-miterlimit:0;stroke-dasharray:none;stroke-dashoffset:0;stroke-opacity:1" />
<polyline points="-112 512 -208 512" style="fill:none;fill-opacity:1;stroke:#000000;stroke-width:3;stroke-linecap:round;stroke-linejoin:round;stroke-miterlimit:0;stroke-dasharray:none;stroke-dashoffset:0;stroke-opacity:1" />
<polyline points="-208 560 -208 512" style="fill:none;fill-opacity:1;stroke:#000000;stroke-width:3;stroke-linecap:round;stroke-linejoin:round;stroke-miterlimit:0;stroke-dasharray:none;stroke-dashoffset:0;stroke-opacity:1" />
<polyline points="192 560 192 464" style="fill:none;fill-opacity:1;stroke:#000000;stroke-width:3;stroke-linecap:round;stroke-linejoin:round;stroke-miterlimit:0;stroke-dasharray:none;stroke-dashoffset:0;stroke-opacity:1" />
<polyline points="240 560 192 560" style="fill:none;fill-opacity:1;stroke:#000000;stroke-width:3;stroke-linecap:round;stroke-linejoin:round;stroke-miterlimit:0;stroke-dasharray:none;stroke-dashoffset:0;stroke-opacity:1" />
<polyline points="352 560 352 464" style="fill:none;fill-opacity:1;stroke:#000000;stroke-width:3;stroke-linecap:round;stroke-linejoin:round;stroke-miterlimit:0;stroke-dasharray:none;stroke-dashoffset:0;stroke-opacity:1" />
<polyline points="352 560 304 560" style="fill:none;fill-opacity:1;stroke:#000000;stroke-width:3;stroke-linecap:round;stroke-linejoin:round;stroke-miterlimit:0;stroke-dasharray:none;stroke-dashoffset:0;stroke-opacity:1" />
<polyline points="192 624 192 560" style="fill:none;fill-opacity:1;stroke:#000000;stroke-width:3;stroke-linecap:round;stroke-linejoin:round;stroke-miterlimit:0;stroke-dasharray:none;stroke-dashoffset:0;stroke-opacity:1" />
<polyline points="352 624 352 560" style="fill:none;fill-opacity:1;stroke:#000000;stroke-width:3;stroke-linecap:round;stroke-linejoin:round;stroke-miterlimit:0;stroke-dasharray:none;stroke-dashoffset:0;stroke-opacity:1" />
<polyline points="-208 656 -208 624" style="fill:none;fill-opacity:1;stroke:#000000;stroke-width:3;stroke-linecap:round;stroke-linejoin:round;stroke-miterlimit:0;stroke-dasharray:none;stroke-dashoffset:0;stroke-opacity:1" />
<polyline points="192 720 192 688" style="fill:none;fill-opacity:1;stroke:#000000;stroke-width:3;stroke-linecap:round;stroke-linejoin:round;stroke-miterlimit:0;stroke-dasharray:none;stroke-dashoffset:0;stroke-opacity:1" />
<polyline points="352 720 352 688" style="fill:none;fill-opacity:1;stroke:#000000;stroke-width:3;stroke-linecap:round;stroke-linejoin:round;stroke-miterlimit:0;stroke-dasharray:none;stroke-dashoffset:0;stroke-opacity:1" />
<g 
>
<use xlink:href="#svg/svg_nmos" x="128" y="224" transform = "rotate(0 128 224)" />
</g>
<text x="206" y="272" style="white-space:pre;dominant-baseline:middle;text-anchor:start;font-size:20px;">M1</text>
<g 
transform = "scale(-1 1) translate(-416 0) translate(-416 0)" >
<use xlink:href="#svg/svg_nmos" x="416" y="224" transform = "rotate(0 416 224)" />
</g>
<text x="338" y="272" style="white-space:pre;dominant-baseline:middle;text-anchor:end;font-size:20px;">M2</text>
<g 
>
<use xlink:href="#svg/svg_current" x="352" y="624" transform = "rotate(0 352 624)" />
</g>
<text x="308" y="644" style="white-space:pre;dominant-baseline:middle;text-anchor:end;font-size:20px;">I1</text>
<text x="308" y="668" style="white-space:pre;dominant-baseline:middle;text-anchor:end;font-size:20px;"></text>
<g 
>
<use xlink:href="#svg/svg_res" x="176" y="112" transform = "rotate(0 176 112)" />
</g>
<text x="224" y="132" style="white-space:pre;dominant-baseline:middle;text-anchor:start;font-size:20px;">R1</text>
<text x="224" y="156" style="white-space:pre;dominant-baseline:middle;text-anchor:start;font-size:20px;"></text>
<g 
>
<use xlink:href="#svg/svg_res" x="336" y="112" transform = "rotate(0 336 112)" />
</g>
<text x="384" y="132" style="white-space:pre;dominant-baseline:middle;text-anchor:start;font-size:20px;">R2</text>
<text x="384" y="156" style="white-space:pre;dominant-baseline:middle;text-anchor:start;font-size:20px;"></text>
<g 
>
<use xlink:href="#svg/svg_res" x="304" y="448" transform = "rotate(90 304 448)" />
</g>
<text x="272" y="440" style="white-space:pre;dominant-baseline:baseline;text-anchor:middle;font-size:20px;">R3</text>
<text x="272" y="488" style="white-space:pre;dominant-baseline:hanging;text-anchor:middle;font-size:20px;"></text>
<g 
>
<use xlink:href="#svg/svg_cap" x="304" y="544" transform = "rotate(90 304 544)" />
</g>
<text x="272" y="536" style="white-space:pre;dominant-baseline:baseline;text-anchor:middle;font-size:20px;">C1</text>
<text x="272" y="584" style="white-space:pre;dominant-baseline:hanging;text-anchor:middle;font-size:20px;"></text>
<g 
>
<use xlink:href="#svg/svg_current" x="192" y="624" transform = "rotate(0 192 624)" />
</g>
<text x="148" y="644" style="white-space:pre;dominant-baseline:middle;text-anchor:end;font-size:20px;">I2</text>
<text x="148" y="668" style="white-space:pre;dominant-baseline:middle;text-anchor:end;font-size:20px;"></text>
<g 
>
<use xlink:href="#svg/svg_block_amp" x="-496" y="224" transform = "rotate(0 -496 224)" />
</g>
<text x="-448" y="256" style="white-space:pre;dominant-baseline:middle;text-anchor:middle;font-size:20px;"></text>
<g 
>
<use xlink:href="#svg/svg_block_box" x="-496" y="400" transform = "rotate(0 -496 400)" />
</g>
<g 
>
<use xlink:href="#svg/svg_block_quant" x="-224" y="224" transform = "rotate(0 -224 224)" />
</g>
<g 
>
<use xlink:href="#svg/svg_block_sum" x="-592" y="240" transform = "rotate(0 -592 240)" />
</g>
<g 
>
<use xlink:href="#svg/svg_block_sum" x="-256" y="240" transform = "rotate(0 -256 240)" />
</g>
<g 
>
<use xlink:href="#svg/svg_res" x="-224" y="416" transform = "rotate(0 -224 416)" />
</g>
<text x="-176" y="436" style="white-space:pre;dominant-baseline:middle;text-anchor:start;font-size:20px;">R4</text>
<text x="-176" y="460" style="white-space:pre;dominant-baseline:middle;text-anchor:start;font-size:20px;"></text>
<g 
>
<use xlink:href="#svg/svg_res" x="-224" y="560" transform = "rotate(0 -224 560)" />
</g>
<text x="-176" y="580" style="white-space:pre;dominant-baseline:middle;text-anchor:start;font-size:20px;">R5</text>
<text x="-176" y="604" style="white-space:pre;dominant-baseline:middle;text-anchor:start;font-size:20px;"></text>
<g 
>
<use xlink:href="#svg/svg_block_arrow" x="-608" y="256" transform = "rotate(0 -608 256)" />
</g>
<g 
>
<use xlink:href="#svg/svg_block_arrow" x="-480" y="256" transform = "rotate(0 -480 256)" />
</g>
<g 
>
<use xlink:href="#svg/svg_block_arrow" x="-272" y="256" transform = "rotate(0 -272 256)" />
</g>
<g 
>
<use xlink:href="#svg/svg_block_arrow" x="-208" y="256" transform = "rotate(0 -208 256)" />
</g>
<g 
>
<use xlink:href="#svg/svg_block_arrow" x="-384" y="432" transform = "rotate(180 -384 432)" />
</g>
<g 
>
<use xlink:href="#svg/svg_block_arrow" x="-592" y="272" transform = "rotate(270 -592 272)" />
</g>
<use xlink:href="#svg/svg_gnd" x="192" y="720" transform = "rotate(0 192 720)" />
<use xlink:href="#svg/svg_gnd" x="352" y="720" transform = "rotate(0 352 720)" />
<use xlink:href="#svg/svg_port" x="80" y="272" transform = "rotate(0 80 272)" />
<text x="68" y="272" style="white-space:pre;dominant-baseline:middle;text-anchor:end;font-size:20px;">Vin+</text>
<use xlink:href="#svg/svg_port" x="80" y="368" transform = "rotate(0 80 368)" />
<text x="68" y="368" style="white-space:pre;dominant-baseline:middle;text-anchor:end;font-size:20px;">Vin-</text>
<use xlink:href="#svg/svg_supply" x="192" y="80" transform = "rotate(0 192 80)" />
<text x="192" y="57" style="white-space:pre;dominant-baseline:baseline;text-anchor:middle;font-size:20px;">Vdd</text>
<use xlink:href="#svg/svg_supply" x="352" y="80" transform = "rotate(0 352 80)" />
<text x="352" y="57" style="white-space:pre;dominant-baseline:baseline;text-anchor:middle;font-size:20px;">Vdd</text>
<use xlink:href="#svg/svg_port" x="-48" y="256" transform = "rotate(0 -48 256)" />
<text x="-36" y="256" style="white-space:pre;dominant-baseline:middle;text-anchor:start;font-size:20px;">So</text>
<use xlink:href="#svg/svg_port" x="-720" y="256" transform = "rotate(0 -720 256)" />
<text x="-732" y="256" style="white-space:pre;dominant-baseline:middle;text-anchor:end;font-size:20px;">Si</text>
<use xlink:href="#svg/svg_supply" x="-208" y="656" transform = "rotate(180 -208 656)" />
<text x="-208" y="679" style="white-space:pre;dominant-baseline:hanging;text-anchor:middle;font-size:20px;">Vss</text>
<use xlink:href="#svg/svg_supply" x="-208" y="368" transform = "rotate(0 -208 368)" />
<text x="-208" y="345" style="white-space:pre;dominant-baseline:baseline;text-anchor:middle;font-size:20px;">Vdd</text>
<use xlink:href="#svg/svg_port" x="-112" y="512" transform = "rotate(0 -112 512)" />
<text x="-100" y="512" style="white-space:pre;dominant-baseline:middle;text-anchor:start;font-size:20px;">Vcm</text>
</g>
</svg>